<svg width="17" height="16" viewBox="0 0 17 16" fill="none" xmlns="http://www.w3.org/2000/svg">
<path d="M5.88616 10.7807C4.45243 9.34417 3.34984 7.61178 2.6555 5.70468C2.2735 4.66202 2.6235 3.51668 3.40883 2.73135L3.89483 2.24602C4.02549 2.11509 4.18068 2.01123 4.35153 1.94036C4.52238 1.86949 4.70553 1.83301 4.8905 1.83301C5.07546 1.83301 5.25861 1.86949 5.42946 1.94036C5.60031 2.01123 5.7555 2.11509 5.88616 2.24602L7.02416 3.38402C7.15508 3.51467 7.25895 3.66987 7.32982 3.84072C7.40069 4.01157 7.43717 4.19472 7.43717 4.37968C7.43717 4.56465 7.40069 4.7478 7.32982 4.91865C7.25895 5.08949 7.15508 5.24469 7.02416 5.37535L6.74416 5.65535C6.63209 5.7674 6.54318 5.90043 6.48252 6.04685C6.42187 6.19327 6.39065 6.3502 6.39065 6.50868C6.39065 6.66717 6.42187 6.8241 6.48252 6.97051C6.54318 7.11693 6.63209 7.24996 6.74416 7.36202L9.30416 9.92268C9.41622 10.0348 9.54925 10.1237 9.69566 10.1843C9.84208 10.245 9.99901 10.2762 10.1575 10.2762C10.316 10.2762 10.4729 10.245 10.6193 10.1843C10.7657 10.1237 10.8988 10.0348 11.0108 9.92268L11.2915 9.64268C11.4222 9.51176 11.5773 9.40789 11.7482 9.33702C11.919 9.26615 12.1022 9.22967 12.2872 9.22967C12.4721 9.22967 12.6553 9.26615 12.8261 9.33702C12.997 9.40789 13.1522 9.51176 13.2828 9.64268L14.4208 10.7807C14.5518 10.9113 14.6556 11.0665 14.7265 11.2374C14.7974 11.4082 14.8338 11.5914 14.8338 11.7763C14.8338 11.9613 14.7974 12.1445 14.7265 12.3153C14.6556 12.4862 14.5518 12.6414 14.4208 12.772L13.9355 13.2573C13.1502 14.0433 12.0048 14.3933 10.9622 14.0113C9.05506 13.317 7.32267 12.2144 5.88616 10.7807Z" stroke="white" stroke-width="1.5" stroke-linejoin="round"/>
</svg>
