<svg width="17" height="16" viewBox="0 0 17 16" fill="none" xmlns="http://www.w3.org/2000/svg">
<path d="M13.8335 7.33338C13.8335 6.37671 13.8322 5.70934 13.7645 5.20577C13.7069 4.7776 13.608 4.52541 13.4605 4.34575L13.394 4.27283C13.2098 4.0884 12.9504 3.96818 12.4611 3.90239C11.9575 3.83469 11.2902 3.83338 10.3335 3.83338H8.3335C7.37683 3.83338 6.70946 3.83469 6.20589 3.90239C5.77772 3.95997 5.52553 4.05889 5.34587 4.20642L5.27295 4.27283C5.08852 4.45705 4.96831 4.71652 4.90251 5.20577C4.83481 5.70934 4.8335 6.37671 4.8335 7.33338V10.6667C4.8335 11.6234 4.83481 12.2907 4.90251 12.7943C4.96831 13.2836 5.08852 13.543 5.27295 13.7273L5.34587 13.7937C5.52553 13.9412 5.77772 14.0401 6.20589 14.0977C6.70946 14.1654 7.37683 14.1667 8.3335 14.1667H10.3335C11.2902 14.1667 11.9575 14.1654 12.4611 14.0977C12.9504 14.0319 13.2098 13.9117 13.394 13.7273L13.4605 13.6543C13.608 13.4747 13.7069 13.2225 13.7645 12.7943C13.8322 12.2907 13.8335 11.6234 13.8335 10.6667V7.33338ZM14.8335 10.6667C14.8335 11.5952 14.8348 12.3421 14.756 12.9278C14.6804 13.4904 14.5236 13.9699 14.1733 14.3581L14.1011 14.4343C13.7 14.8357 13.1945 15.0085 12.5946 15.0892C12.0088 15.168 11.262 15.1667 10.3335 15.1667H8.3335C7.40502 15.1667 6.65815 15.168 6.07243 15.0892C5.5098 15.0136 5.03035 14.8568 4.64209 14.5066L4.56592 14.4343C4.16449 14.0332 3.99166 13.5278 3.91097 12.9278C3.83221 12.3421 3.8335 11.5952 3.8335 10.6667V7.33338C3.8335 6.4049 3.83221 5.65803 3.91097 5.07231C3.99166 4.47233 4.16449 3.96688 4.56592 3.5658L4.64209 3.49353C5.03035 3.1433 5.5098 2.98652 6.07243 2.91085C6.65815 2.83209 7.40502 2.83338 8.3335 2.83338H10.3335C11.262 2.83338 12.0088 2.83209 12.5946 2.91085C13.1945 2.99154 13.7 3.16437 14.1011 3.5658L14.1733 3.64197C14.5236 4.03022 14.6804 4.50967 14.756 5.07231C14.8348 5.65803 14.8335 6.4049 14.8335 7.33338V10.6667Z" fill="#5C5C5C"/>
<path d="M1.8335 10.6667V6.66671C1.8335 5.42385 1.83252 4.44111 1.93571 3.67387C2.04083 2.89242 2.26221 2.25979 2.76123 1.76111C3.26019 1.26258 3.89309 1.04081 4.67464 0.935588C5.44178 0.832345 6.42405 0.833374 7.66683 0.833374H10.3335C10.9965 0.833374 11.6322 1.09696 12.1011 1.5658C12.5699 2.03464 12.8335 2.67033 12.8335 3.33337H11.8335C11.8335 2.93555 11.6753 2.55413 11.394 2.27283C11.1127 1.99152 10.7313 1.83337 10.3335 1.83337H7.66683C6.39594 1.83337 5.49306 1.83494 4.80811 1.92712C4.13761 2.01739 3.75063 2.18609 3.46826 2.46814C3.1861 2.75006 3.0168 3.13662 2.9266 3.80733C2.83445 4.49242 2.8335 5.39557 2.8335 6.66671V10.6667C2.8335 11.0645 2.99165 11.4459 3.27295 11.7273C3.55425 12.0086 3.93567 12.1667 4.3335 12.1667V13.1667C3.67046 13.1667 3.03476 12.9031 2.56592 12.4343C2.09708 11.9654 1.8335 11.3297 1.8335 10.6667Z" fill="#5C5C5C"/>
</svg>
